<svg xmlns="http://www.w3.org/2000/svg" xmlns:xlink="http://www.w3.org/1999/xlink" width="500" zoomAndPan="magnify" viewBox="0 0 375 374.999991" height="500" preserveAspectRatio="xMidYMid meet" version="1.0"><defs><clipPath id="9a61c61ed9"><path d="M 187 155 L 262.5 155 L 262.5 240 L 187 240 Z M 187 155 " clip-rule="nonzero"/></clipPath><clipPath id="1f2647a5c4"><path d="M 112.5 133.910156 L 218 133.910156 L 218 219 L 112.5 219 Z M 112.5 133.910156 " clip-rule="nonzero"/></clipPath></defs><g clip-path="url(#9a61c61ed9)"><path fill="#918576" d="M 187.371094 192.71875 C 187.371094 171.988281 204.171875 155.183594 224.90625 155.183594 C 245.636719 155.183594 262.4375 171.988281 262.4375 192.71875 C 262.4375 210.199219 250.488281 224.882812 234.320312 229.066406 C 236.507812 233.035156 239.648438 237.414062 243.671875 239.609375 C 243.671875 239.609375 224.042969 241.101562 213.660156 228.539062 C 198.421875 223.757812 187.371094 209.53125 187.371094 192.71875 " fill-opacity="1" fill-rule="nonzero"/></g><path fill="#ffffff" d="M 243.597656 182.546875 L 204.019531 182.546875 C 202.578125 182.546875 201.40625 181.382812 201.40625 179.941406 C 201.40625 178.5 202.578125 177.335938 204.019531 177.335938 L 243.597656 177.335938 C 245.039062 177.335938 246.203125 178.5 246.203125 179.941406 C 246.203125 181.382812 245.039062 182.546875 243.597656 182.546875 " fill-opacity="1" fill-rule="nonzero"/><path fill="#ffffff" d="M 243.597656 195.007812 L 204.019531 195.007812 C 202.578125 195.007812 201.40625 193.84375 201.40625 192.402344 C 201.40625 190.960938 202.578125 189.796875 204.019531 189.796875 L 243.597656 189.796875 C 245.039062 189.796875 246.203125 190.960938 246.203125 192.402344 C 246.203125 193.84375 245.039062 195.007812 243.597656 195.007812 " fill-opacity="1" fill-rule="nonzero"/><path fill="#ffffff" d="M 243.597656 207.472656 L 204.019531 207.472656 C 202.578125 207.472656 201.40625 206.300781 201.40625 204.859375 C 201.40625 203.425781 202.578125 202.257812 204.019531 202.257812 L 243.597656 202.257812 C 245.039062 202.257812 246.203125 203.425781 246.203125 204.859375 C 246.203125 206.300781 245.039062 207.472656 243.597656 207.472656 " fill-opacity="1" fill-rule="nonzero"/><g clip-path="url(#1f2647a5c4)"><path fill="#c0ab9a" d="M 186.929688 142.582031 C 185.253906 142.582031 183.617188 142.714844 182.019531 142.976562 C 177.746094 137.476562 171.066406 133.9375 163.5625 133.9375 C 153.683594 133.9375 145.242188 140.0625 141.816406 148.714844 C 139.933594 148.230469 137.957031 147.96875 135.929688 147.96875 C 123.015625 147.96875 112.558594 158.429688 112.558594 171.335938 C 112.558594 184.238281 123.015625 194.707031 135.929688 194.707031 C 136.433594 194.707031 136.9375 194.683594 137.4375 194.652344 C 141.839844 200.953125 149.140625 205.074219 157.40625 205.074219 C 160.261719 205.074219 163.003906 204.578125 165.550781 203.675781 C 165.382812 207.441406 164.484375 215.984375 159.824219 218.980469 C 159.824219 218.980469 177.757812 218.019531 184.386719 203.023438 C 185.226562 203.09375 186.070312 203.132812 186.929688 203.132812 C 203.648438 203.132812 217.203125 189.574219 217.203125 172.855469 C 217.203125 156.132812 203.648438 142.582031 186.929688 142.582031 " fill-opacity="1" fill-rule="nonzero"/></g><path fill="#ffffff" d="M 150.910156 172.582031 C 150.910156 175.621094 148.441406 178.085938 145.398438 178.085938 C 142.359375 178.085938 139.894531 175.621094 139.894531 172.582031 C 139.894531 169.539062 142.359375 167.070312 145.398438 167.070312 C 148.441406 167.070312 150.910156 169.539062 150.910156 172.582031 " fill-opacity="1" fill-rule="nonzero"/><path fill="#ffffff" d="M 170.386719 172.582031 C 170.386719 175.621094 167.917969 178.085938 164.878906 178.085938 C 161.84375 178.085938 159.375 175.621094 159.375 172.582031 C 159.375 169.539062 161.84375 167.070312 164.878906 167.070312 C 167.917969 167.070312 170.386719 169.539062 170.386719 172.582031 " fill-opacity="1" fill-rule="nonzero"/><path fill="#ffffff" d="M 189.867188 172.582031 C 189.867188 175.621094 187.402344 178.085938 184.363281 178.085938 C 181.320312 178.085938 178.851562 175.621094 178.851562 172.582031 C 178.851562 169.539062 181.320312 167.070312 184.363281 167.070312 C 187.402344 167.070312 189.867188 169.539062 189.867188 172.582031 " fill-opacity="1" fill-rule="nonzero"/></svg>